# xmcd CD database file
#
# Track frame offsets:
#	150
#	12604
#	23444
#	36711
#	48327
#	59921
#	73404
#	84624
#	98747
#	111380
#	121108
#	133696
#	149862
#	160152
#	170524
#
# Disc length: 2434 seconds
#
# Revision: 0
# Processed by: cddbd v1.5.2PL0 Copyright (c) Steve Scherf et al.
# Submitted via: CDex 1.70beta2
#
DISCID=e509800f
DTITLE=Various Artist - The Country Box [CD2)
DYEAR=1900
DGENRE=Country
TTITLE0=Wanda Jackson - Crazy
TTITLE1=Hank Locklin - Send Me The Pillow That You Dream On
TTITLE2=Lee Greenwood - Amazing Grace
TTITLE3=Sammi Smith' - Help Me Make It Through The Night
TTITLE4=Billy Jo Spears - Try A Little Kindness
TTITLE5=David Houston - Almost Persuaded
TTITLE6=Don Gibson - Just One Time
TTITLE7=Lacy J Dalton - 16th Avenue
TTITLE8=Lynn Anderson - It Must Be Love
TTITLE9=Murry Kellum - Long Tall Texan
TTITLE10=Connie Smith - The Hurtin's All Over
TTITLE11=Jim Ed Brown - Whispering Hope
TTITLE12=Jean Shephard - If Teardrops Were Silver
TTITLE13=George Hamilton IV - Abilene
TTITLE14=Johnny Paycheck - Take This Job And Shove It
EXTD=
EXTT0=
EXTT1=
EXTT2=
EXTT3=
EXTT4=
EXTT5=
EXTT6=
EXTT7=
EXTT8=
EXTT9=
EXTT10=
EXTT11=
EXTT12=
EXTT13=
EXTT14=
PLAYORDER=
